<?xml version="1.0" encoding="UTF-8" standalone="no"?>
<!-- Created with Inkscape (http://www.inkscape.org/) -->

<svg
   width="210mm"
   height="297mm"
   viewBox="0 0 210 297"
   version="1.1"
   id="svg5"
   inkscape:version="1.1.2 (b8e25be8, 2022-02-05)"
   sodipodi:docname="buzzing bee.svg"
   xmlns:inkscape="http://www.inkscape.org/namespaces/inkscape"
   xmlns:sodipodi="http://sodipodi.sourceforge.net/DTD/sodipodi-0.dtd"
   xmlns="http://www.w3.org/2000/svg"
   xmlns:svg="http://www.w3.org/2000/svg">
  <sodipodi:namedview
     id="namedview7"
     pagecolor="#ffffff"
     bordercolor="#666666"
     borderopacity="1.0"
     inkscape:pageshadow="2"
     inkscape:pageopacity="0.0"
     inkscape:pagecheckerboard="0"
     inkscape:document-units="mm"
     showgrid="false"
     inkscape:snap-global="false"
     inkscape:zoom="0.40180591"
     inkscape:cx="279.98593"
     inkscape:cy="373.31457"
     inkscape:window-width="1042"
     inkscape:window-height="768"
     inkscape:window-x="0"
     inkscape:window-y="37"
     inkscape:window-maximized="0"
     inkscape:current-layer="layer1" />
  <defs
     id="defs2">
    <inkscape:path-effect
       effect="spiro"
       id="path-effect4462"
       is_visible="true"
       lpeversion="1" />
  </defs>
  <g
     inkscape:label="Layer 1"
     inkscape:groupmode="layer"
     id="layer1">
    <path
       id="path983-3"
       style="color:#000000;display:inline;fill:#000000;fill-rule:evenodd;stroke-width:0.745083;-inkscape-stroke:none;paint-order:markers fill stroke"
       d="m 47.399686,61.651597 c -1.138251,0.560176 -2.157219,1.367241 -2.954602,2.349414 -0.86492,1.092556 -1.389175,2.630931 -0.841211,3.98059 0.677792,1.423359 2.307736,2.103887 3.809445,2.177248 1.053476,0.0569 2.264651,-0.372573 2.688282,-1.416456 0.563153,-1.192824 0.243325,-2.542775 0.549181,-3.773798 0.137534,-0.257288 0.254576,-0.694246 -0.116395,-0.810394 -0.394577,-0.04207 -0.827817,-0.41419 -1.20413,-0.100675 -0.332326,0.342075 -0.354763,0.874408 -0.423461,1.327037 -0.107937,0.945756 0.05499,1.909095 -0.357872,2.786677 -0.455809,0.495282 -1.215535,0.349989 -1.804961,0.236844 -0.719693,-0.172758 -1.579801,-0.584995 -1.701184,-1.396913 -0.112167,-1.175394 0.730469,-2.165702 1.565432,-2.884854 1.111868,-0.936048 2.51889,-1.632147 3.994318,-1.632629 1.246953,0.141264 2.21116,0.957163 3.149568,1.724304 0.860643,0.748373 1.626034,1.574161 2.351662,2.444707 -1.601967,1.322781 -2.907013,3.006128 -3.750599,4.906547 -1.247297,2.777825 -1.537639,5.980316 -0.766045,8.929516 0.738991,2.874012 2.443131,5.495791 4.798742,7.305886 0.504685,0.391481 1.037044,0.747542 1.591349,1.06488 -0.05614,0.143793 -0.110191,0.28834 -0.162639,0.433422 -3.373942,-1.678694 -6.914561,-3.028934 -10.519198,-4.115012 -4.815544,-1.40709 -9.841049,-2.407042 -14.879441,-2.084845 -1.903513,0.148992 -3.824817,0.518121 -5.553615,1.345517 -0.246971,0.118201 -0.490236,0.245759 -0.728718,0.383363 -2.065843,1.183586 -3.632936,3.310041 -3.911308,5.697182 -0.192259,2.294841 1.242313,4.343879 2.90525,5.77563 3.029853,2.577987 6.758211,4.139445 10.451201,5.511385 2.747675,0.98989 5.554386,1.81636 8.392774,2.50031 -0.588631,2.80131 -1.061799,5.70335 -0.66003,8.56418 0.21157,1.51648 0.961585,3.19954 2.536284,3.69286 2.280988,0.8252 4.787815,0.0176 6.742612,-1.24615 3.123329,-2.04959 5.571181,-4.92329 7.784845,-7.90589 1.618706,2.32078 3.709765,4.31003 6.147417,5.75543 3.002135,1.78819 6.530039,2.7432 10.029952,2.52562 3.067918,-0.18401 6.077706,-1.27329 8.537888,-3.11836 2.159996,-1.60817 3.890704,-3.77189 5.030241,-6.20883 1.667407,-3.5377 2.130565,-7.599465 1.44602,-11.440084 -0.130024,-0.740643 -0.301535,-1.474221 -0.512528,-2.196341 3.710581,0.146528 7.483189,0.04232 11.037678,-1.104392 2.21034,-0.729831 4.41169,-2.175664 5.19968,-4.469787 0.60348,-1.535857 -0.23726,-3.175489 -1.28565,-4.291438 -1.97612,-2.107299 -4.53312,-3.559016 -7.084086,-4.857619 1.247616,-2.639645 2.364716,-5.344155 3.317166,-8.105034 1.24782,-3.736757 2.36988,-7.619758 2.26245,-11.596502 -0.072,-2.19319 -0.76812,-4.595695 -2.67603,-5.885345 -2.033799,-1.28047 -4.672875,-1.393726 -6.89045,-0.527147 -0.256749,0.09943 -0.508333,0.208721 -0.755299,0.32693 -1.728763,0.82749 -3.221679,2.092509 -4.531661,3.481586 -3.411146,3.721998 -5.784474,8.263245 -7.709016,12.896332 -1.415069,3.488716 -2.58419,7.093034 -3.392987,10.773786 -0.14576,-0.05023 -0.292237,-0.09877 -0.439232,-0.14535 0.475708,-2.923018 -0.04517,-5.99854 -1.469919,-8.596084 -1.29033,-2.37963 -3.309555,-4.358136 -5.724835,-5.583323 -2.432084,-1.245783 -5.243463,-1.732138 -7.952903,-1.373491 -0.252753,-1.202352 -0.435882,-2.406258 -0.482474,-3.639865 -0.0089,-1.21204 -0.03991,-2.474587 0.632194,-3.534364 0.92581,-1.14882 2.350473,-1.808047 3.776891,-2.086896 1.083809,-0.199228 2.38362,-0.234356 3.228712,0.590238 0.556215,0.603796 0.337804,1.532242 0.02094,2.201126 -0.281586,0.530036 -0.644595,1.212703 -1.316235,1.257049 -0.942449,-0.228891 -1.5909,-0.959843 -2.395182,-1.468984 -0.395617,-0.230394 -0.823939,-0.546981 -1.298806,-0.502711 -0.480203,0.09644 -0.462467,0.667436 -0.677199,1.001132 -0.142222,0.361778 0.271511,0.544692 0.558161,0.598952 1.150609,0.533918 2.001402,1.629735 3.283634,1.939304 1.078727,0.324811 2.173247,-0.349283 2.789698,-1.205464 0.884769,-1.215598 1.376615,-2.911675 0.693312,-4.332397 -0.707468,-1.273315 -2.234084,-1.830084 -3.627512,-1.841731 -1.328348,0.0052 -2.659856,0.32202 -3.854929,0.909824 -0.625991,0.307898 -1.214627,0.69009 -1.745806,1.140801 -1.038817,0.846083 -1.537513,2.172454 -1.655537,3.476072 -0.182234,1.945761 0.05556,3.894038 0.456028,5.80263 -0.851921,0.219735 -1.682494,0.521969 -2.475691,0.902783 -0.495797,0.234767 -0.969154,0.511581 -1.431252,0.806265 -1.210306,-1.465205 -2.549241,-2.828858 -4.137266,-3.879756 -1.089333,-0.725742 -2.435502,-1.169107 -3.746036,-0.890724 -0.746396,0.142914 -1.472128,0.390171 -2.155079,0.726276 z M 27.638467,86.038128 c 1.633812,-0.769567 3.516788,-1.089153 5.31085,-1.189199 4.929524,-0.231686 9.823259,0.825439 14.516764,2.243921 5.18938,1.640462 10.200911,3.797745 14.753162,6.791258 0.605609,0.399111 1.193205,0.82497 1.768531,1.266499 -3.744339,-0.0052 -7.614131,-0.0075 -11.136482,1.441102 -3.194907,1.254101 -5.898385,3.506881 -8.128758,6.077891 -5.00816,-1.21259 -9.98161,-2.755797 -14.568856,-5.135301 -2.103384,-1.15315 -4.275641,-2.47641 -5.571995,-4.559446 -0.706725,-1.101523 -0.789652,-2.540249 -0.189405,-3.707145 0.607779,-1.457576 1.831104,-2.568962 3.246189,-3.22958 z m 67.29201,-32.207894 c 1.402089,-0.687768 3.034983,-0.943446 4.551413,-0.502575 1.28531,0.26441 2.35383,1.231408 2.76846,2.472731 0.80924,2.316185 0.47735,4.838 0.0562,7.199479 -1.02399,5.06521 -2.941565,9.906652 -5.138398,14.56777 -3.401348,0.124486 -6.851582,0.817062 -9.832264,2.518762 -3.337368,1.834868 -5.762635,4.849944 -8.10712,7.769449 0.01697,-0.725022 0.05351,-1.449617 0.122522,-2.171615 0.52383,-5.423075 1.987016,-10.679346 3.96428,-15.749967 1.839125,-4.545187 4.085275,-9.019666 7.357642,-12.713643 1.203205,-1.334531 2.63316,-2.600611 4.2573,-3.390391 z M 52.757887,81.165627 C 60.652412,78.33792 68.271304,74.758506 75.5393,70.579799 c 1.514413,2.488475 2.132096,5.51187 1.691787,8.393422 -3.020523,-0.799045 -6.276548,-0.807006 -9.259632,0.161163 -2.796017,0.897795 -5.316874,2.620751 -7.178487,4.891008 -1.002162,1.211345 -1.828996,2.56464 -2.471729,3.998623 -2.60009,-1.515238 -4.623044,-3.997963 -5.563352,-6.858388 z m 14.493371,2.092482 c 0.623471,-0.297007 1.258261,-0.569642 1.901258,-0.817796 2.591628,-1.003656 5.324995,-1.655791 8.09726,-1.874448 0.350862,-0.02381 0.703687,-0.03804 1.055966,-0.03587 -0.168166,0.84907 -0.318948,1.701526 -0.446063,2.55783 -5.346892,1.739939 -10.482159,4.128758 -15.253354,7.104767 -0.483853,0.300902 -0.962988,0.609456 -1.439615,0.921675 -0.747076,-0.4391 -1.505794,-0.857717 -2.273064,-1.260218 0.360369,-0.467324 0.748854,-0.913472 1.140356,-1.354285 2.026338,-2.208322 4.515547,-3.954631 7.217256,-5.241657 z M 52.65949,98.59628 c 2.43304,-1.151846 5.177212,-1.566365 7.898464,-1.631605 1.450173,-0.03971 2.901382,-0.02012 4.351419,-0.04016 -2.412619,4.408965 -5.112069,8.690935 -8.411235,12.511895 -1.339505,1.52052 -2.753956,2.94554 -4.379659,4.07474 -1.604941,1.1192 -3.672071,2.05937 -5.639242,1.40742 -1.053245,-0.33825 -1.31016,-1.59063 -1.447708,-2.5538 -0.306756,-2.7846 0.206656,-5.5845 0.817943,-8.29401 1.838755,-2.16598 4.007101,-4.105189 6.575561,-5.360534 0.07782,-0.03867 0.155972,-0.07677 0.234457,-0.113923 z M 89.017744,81.194172 c 0.07817,-0.03782 0.156483,-0.07464 0.235439,-0.110981 2.588709,-1.21303 5.459089,-1.685495 8.299345,-1.759024 2.493682,1.223384 4.996382,2.579686 6.972712,4.565168 0.66388,0.711257 1.47849,1.696711 1.08131,2.729175 -0.72609,1.941026 -2.75525,2.961455 -4.63358,3.509448 -1.899147,0.557888 -3.896185,0.765714 -5.920598,0.855258 -5.045225,0.172912 -10.073007,-0.410577 -15.020123,-1.296965 0.925128,-1.116746 1.819764,-2.259132 2.760268,-3.36368 1.75765,-2.078494 3.802061,-3.955919 6.225227,-5.128399 z m -17.068109,9.137842 c 0.3288,-0.158703 0.658593,-0.315528 0.9894,-0.470147 1.423947,-0.666082 2.866763,-1.292496 4.325768,-1.878347 -0.102349,1.74219 0.08043,3.557585 1.447314,3.255752 0.839014,0.163531 1.680569,0.314797 2.523914,0.455469 -4.809485,1.624512 -9.460401,3.715162 -13.828762,6.3051 -0.542331,0.320595 -1.078938,0.650868 -1.612591,0.985693 0.392692,-0.7004 0.777646,-1.405077 1.15227,-2.115112 1.058356,-0.847971 -0.127834,-2.07741 -1.495044,-3.07454 2.121027,-1.236539 4.28633,-2.396492 6.497731,-3.463868 z m 18.722812,4.831505 c 0.293354,1.695645 0.358929,3.431569 0.182024,5.143661 -6.881482,4.69569 -14.507457,8.23203 -22.408223,10.83578 -0.754153,0.24918 -1.511033,0.49046 -2.27025,0.72377 -1.319327,-0.88234 -2.52625,-1.93383 -3.582604,-3.11778 9.865063,-3.37373 19.222997,-8.10969 28.079053,-13.585431 z M 72.495238,114.50919 c 5.787057,-1.87901 11.332795,-4.50684 16.437105,-7.81989 -1.450461,2.74824 -3.735228,5.0645 -6.511578,6.47433 -2.450212,1.25766 -5.250111,1.81505 -7.995479,1.60462 -0.647774,-0.0471 -1.292722,-0.13405 -1.930048,-0.25906 z" />
    <path
       style="color:#000000;fill:#000000;stroke-width:0.745083;stroke-dasharray:8.941, 1.49017;stroke-dashoffset:11.9213;-inkscape-stroke:none"
       d="m 83.553246,120.13665 c 0.762391,2.37211 1.563669,4.73006 2.398251,7.07693 l 1.403483,-0.49912 c -0.829725,-2.33321 -1.62522,-4.67748 -2.382716,-7.03435 z m 2.902508,8.48441 c 1.016457,2.8108 2.081822,5.60448 3.201167,8.37696 l 1.381719,-0.55808 c -1.112163,-2.75467 -2.171291,-5.53198 -3.181862,-8.3265 z m 3.765068,9.76074 c 1.135268,2.76629 2.325993,5.51103 3.58259,8.22666 l 1.352303,-0.62627 c -1.246546,-2.69399 -2.429186,-5.41837 -3.556936,-8.16634 z m 33.239238,-11.95013 c -0.52805,0.25109 -0.94765,0.65541 -1.23862,1.13008 -0.75659,1.21457 -1.27886,2.5878 -1.46367,4.02727 l 0.002,-0.003 c -0.17394,1.31677 -0.0691,2.64632 0.23456,3.91139 l 1.44839,-0.34799 c -0.26646,-1.11006 -0.35341,-2.25837 -0.20683,-3.36807 l 7e-4,-0.002 c 0.15518,-1.2087 0.59841,-2.38797 1.25169,-3.43534 l 7e-4,-0.002 0.002,-0.003 c 0.15132,-0.24686 0.37101,-0.4493 0.60984,-0.56292 z m 1.80093,-0.3328 -0.0582,1.48956 c 0.17862,0.007 0.36186,0.0267 0.55032,0.0577 0.87,0.14767 1.73441,0.48124 2.59623,0.88053 1.55421,0.73385 3.0291,1.66732 4.46987,2.67157 l 0.85229,-1.22267 c -1.47784,-1.03007 -3.02256,-2.01144 -4.6903,-2.79839 l -0.003,-0.002 -0.002,-7e-4 c -0.91827,-0.42545 -1.90564,-0.81624 -2.97823,-0.99778 l -0.002,-7e-4 -0.002,-7e-4 c -0.23685,-0.0388 -0.48136,-0.0665 -0.73355,-0.0764 z m 17.87547,-6.97141 c -0.81754,0.52077 -1.43074,1.23177 -1.93995,1.94008 l -7e-4,0.002 -0.001,6.4e-4 c -0.76072,1.07129 -1.33701,2.2331 -1.83546,3.39209 l 6.4e-4,10e-4 -0.001,6.4e-4 c -0.3701,0.86769 -0.69666,1.75046 -0.99256,2.63856 l 1.41412,0.47025 c 0.2851,-0.85574 0.59716,-1.6989 0.94824,-2.52215 l 7e-4,-0.002 c 0.47564,-1.10578 1.00934,-2.16856 1.67896,-3.11229 0.45074,-0.6268 0.95037,-1.1826 1.53035,-1.55204 z m 1.72686,-0.6055 0.12995,1.48499 c 0.16744,-0.0146 0.34231,-0.001 0.51567,0.0291 0.42504,0.13357 0.83458,0.31166 1.21047,0.54028 l 0.002,7e-4 c 0.76453,0.46168 1.4138,1.13771 1.90269,1.91912 l 6.4e-4,0.001 c 0.57242,0.91187 0.9553,1.96087 1.21076,3.05212 l 1.45085,-0.33949 c -0.28218,-1.20549 -0.71345,-2.41091 -1.39955,-3.50385 -0.59677,-0.95386 -1.39906,-1.80226 -2.39227,-2.40271 -0.49866,-0.30332 -1.03299,-0.54022 -1.58508,-0.70947 l -0.0376,-0.0111 -0.039,-0.007 c -0.31468,-0.0616 -0.6409,-0.0825 -0.96955,-0.0538 z m -50.425865,29.44155 c 1.27939,2.70565 2.629413,5.38214 4.073853,8.00928 l 1.30508,-0.71823 c -1.427467,-2.59624 -2.763066,-5.24512 -4.031659,-7.92784 z m 43.472555,-19.41653 c -0.38504,1.29639 -0.68696,2.61534 -0.9759,3.93739 -0.67311,-0.54954 -1.34282,-1.10543 -2.03667,-1.62267 l -0.88956,1.19534 c 0.99162,0.73923 1.96098,1.50344 2.89386,2.30462 l 0.97556,0.83826 0.27401,-1.43312 7.4e-4,-0.005 c 0.32072,-1.61359 0.71841,-3.21205 1.18719,-4.79033 z m -16.46196,8.45836 c 0.51259,1.41063 1.22504,2.72309 2.03104,3.95019 l 6.4e-4,10e-4 c 0.88055,1.33712 1.87964,2.58117 2.9411,3.75499 l 1.10618,-0.99894 c -1.02189,-1.13006 -1.97276,-2.31636 -2.80166,-3.57488 l -6.4e-4,-0.001 c -0.75874,-1.15527 -1.41258,-2.36851 -1.87495,-3.64092 z m 28.64573,-10.05646 c 0.15715,1.11768 0.21138,2.25568 0.19846,3.40112 -0.0223,1.76194 -0.20085,3.52717 -0.48096,5.28157 l 1.47088,0.23495 c 0.28911,-1.81073 0.47686,-3.64749 0.50031,-5.49733 l -6.5e-4,-0.001 c 0.0136,-1.20304 -0.0414,-2.41779 -0.21147,-3.62721 z m -49.5557,29.5978 -1.295592,0.73465 c 1.478332,2.60854 3.056842,5.17068 4.795732,7.62988 l 1.21771,-0.86031 c -1.70288,-2.40826 -3.25771,-4.9278 -4.71785,-7.50422 z m 27.99115,-11.7679 -1.06912,1.03928 c 2.05189,2.10907 4.29306,4.0105 6.61235,5.78271 l 0.002,7e-4 0.20753,0.15719 0.89921,-1.18866 -0.2037,-0.15257 -0.003,-0.004 c -2.27721,-1.74025 -4.46019,-3.59518 -6.44502,-5.63533 z m 21.02995,-7.70201 c -0.55241,2.88698 -1.34674,5.73089 -2.30984,8.51886 l 1.40927,0.48709 c 0.9827,-2.84476 1.7962,-5.75727 2.36417,-8.72555 z m -43.44055,28.16649 -1.19605,0.88867 c 1.60231,2.15732 3.34678,4.23825 5.32982,6.09971 l 6.5e-4,0.001 c 0.23969,0.22439 0.48393,0.44541 0.73189,0.66287 l 0.98201,-1.12019 c -0.23426,-0.20542 -0.46552,-0.41706 -0.69405,-0.63097 -1.89681,-1.78051 -3.58721,-3.79159 -5.15425,-5.90142 z m 30.24757,-13.7917 -0.87734,1.20401 c 2.14395,1.56277 4.37796,2.99032 6.63802,4.37005 -1.3021,2.36686 -2.69872,4.68257 -4.28665,6.85946 l 1.20463,0.87866 c 1.77926,-2.43919 3.3657,-5.01138 4.78934,-7.66311 l -0.3934,-0.21182 0.33512,-0.56051 c -2.5413,-1.5189 -5.0221,-3.13636 -7.40972,-4.87674 z m 10.38794,-4.46699 c -1.02019,2.7684 -2.20811,5.4766 -3.55047,8.10432 l 1.32787,0.6777 c 1.36916,-2.6802 2.57883,-5.44212 3.61966,-8.26649 z m -1.70302,10.09343 -0.74735,1.29021 c 2.59525,1.50357 5.24976,2.90753 7.95838,4.19951 l 0.64088,-1.34413 c -2.67131,-1.27418 -5.28971,-2.66119 -7.85191,-4.14559 z m -31.97081,15.62159 -0.9172,1.17469 c 1.12113,0.87685 2.32833,1.67048 3.63669,2.29595 l 10e-4,-6.5e-4 c 1.19173,0.56956 2.47163,0.99528 3.80885,1.18262 0.35795,0.05 0.72097,0.0851 1.08791,0.0988 l 0.0569,-1.48892 c -0.31045,-0.0116 -0.62448,-0.0414 -0.93778,-0.0852 l -0.001,6.4e-4 c -1.15804,-0.16236 -2.29493,-0.53778 -3.37239,-1.05272 -1.18763,-0.56775 -2.30755,-1.29976 -3.363,-2.12526 z m 63.54977,-29.35517 -0.0366,0.2337 -0.0472,0.28232 c -0.41853,2.43085 -0.96088,4.84173 -1.62025,7.21918 l 1.43617,0.39839 c 0.67299,-2.42652 1.22624,-4.88673 1.65344,-7.36898 l 5e-5,-0.003 0.0486,-0.28946 0.0373,-0.23889 z m -39.67257,21.71659 c -0.67496,0.8743 -1.37724,1.72543 -2.10991,2.54899 -1.2163,1.3658 -2.51313,2.65408 -3.90936,3.8152 l 0.95334,1.14575 c 1.46399,-1.21748 2.81228,-2.55953 4.0689,-3.97062 0.75718,-0.8511 1.48167,-1.7293 2.17639,-2.6292 z m -14.83175,10.85315 0.17624,1.48058 0.19697,-0.0233 0.0249,-0.005 c 1.63509,-0.31055 3.1971,-0.8912 4.65546,-1.63615 1.24021,-0.63349 2.41011,-1.38601 3.51331,-2.21235 l -0.89331,-1.19223 c -1.04606,0.78355 -2.14441,1.48946 -3.29685,2.07811 -1.35026,0.68972 -2.77896,1.21546 -4.24687,1.49543 z m 32.1158,-14.06475 -0.61958,1.35491 c 2.33085,1.0647 4.71021,2.06047 7.16703,2.86973 l 0.002,7.1e-4 6.4e-4,0.001 c 0.41722,0.13579 0.84014,0.2676 1.27036,0.38901 l 0.4042,-1.43413 c -0.4027,-0.11364 -0.8051,-0.24034 -1.21076,-0.37236 l -0.002,-7e-4 c -2.38242,-0.78487 -4.71078,-1.75738 -7.01187,-2.80848 z m 20.27414,-9.3553 c -0.3053,1.00787 -0.63684,2.00554 -0.99993,2.99057 -0.65503,1.76835 -1.40152,3.49265 -2.33096,5.10061 l 1.28959,0.74604 c 0.98719,-1.70789 1.76531,-3.51083 2.43904,-5.32982 l 0.001,-6.5e-4 c 0.3744,-1.01567 0.71458,-2.04194 1.02742,-3.0747 z m -4.09259,9.30759 c -0.65834,0.96596 -1.4025,1.85741 -2.27293,2.56571 -0.6756,0.54899 -1.43649,0.97508 -2.23669,1.18186 l -0.0242,0.007 -0.0236,0.008 c -0.0569,0.0188 -0.1897,0.0308 -0.38396,0.0337 l -0.002,-7e-4 c -0.51304,-0.005 -1.05441,-0.0945 -1.61838,-0.21276 l -0.30567,1.45795 c 0.59734,0.12529 1.23511,0.24023 1.912,0.24647 l 0.008,-5.3e-4 0.008,-5.3e-4 c 0.20621,-0.002 0.49566,-0.001 0.82847,-0.10613 1.04602,-0.27538 1.97931,-0.80928 2.77847,-1.45892 l 0.001,-6.5e-4 c 1.02207,-0.83169 1.85089,-1.83798 2.56217,-2.88161 z"
       id="path6382" />
  </g>
</svg>
